# xmcd
#
# Track frame offsets:
#	150
#	36420
#	68737
#	103003
#	121290
#	150944
#	170972
#	187042
#	200962
#	216200
#	233858
#	263623
#	291675
#
# Disc length: 4287 seconds
#
# Revision: 1
# Processed by: cddbd v1.5.2PL0 Copyright (c) Steve Scherf et al.
# Submitted via: audiograbber 1.83.01
#
DISCID=cd10bd0d
DTITLE=Johann Sebastian Bach - J.S. Bach: Klavierkonzerte BWV 1052, 1055, 1056,
DTITLE=1058 (David Fray)
DYEAR=2008
DGENRE=Classical
TTITLE0=Klavierkonzert D-moll BWV 1052 - I. Allegro
TTITLE1=Klavierkonzert D-moll BWV 1052 - II. Adagio
TTITLE2=Klavierkonzert D-moll BWV 1052 - III. Allegro
TTITLE3=Klavierkonzert A-Dur BWV 1055 - I. Allegro
TTITLE4=Klavierkonzert A-Dur BWV 1055 - II. Larghetto
TTITLE5=Klavierkonzert A-Dur BWV 1055 - III. Allegro ma non tanto
TTITLE6=Klavierkonzert F-moll BWV 1056 - I. Allegro
TTITLE7=Klavierkonzert F-moll BWV 1056 - II. Adagio
TTITLE8=Klavierkonzert F-moll BWV 1056 - III. Presto
TTITLE9=Klavierkonzert G-moll BWV 1058 - I. Allegro
TTITLE10=Klavierkonzert G-moll BWV 1058 - II. Andante
TTITLE11=Klavierkonzert G-moll BWV 1058 - III. Allegro assai
TTITLE12=BWV 1058: Klavierkonzert in G - moll: 4.?
EXTD=David Fray, Piano\nDeutsche Kammerphilharmonie Bremen\nFlorian Donderer, K
EXTD=onzertmeister
EXTT0=
EXTT1=
EXTT2=
EXTT3=
EXTT4=
EXTT5=
EXTT6=
EXTT7=
EXTT8=
EXTT9=
EXTT10=
EXTT11=
EXTT12=
PLAYORDER=
